<svg xmlns="http://www.w3.org/2000/svg" viewBox="0 0 512 512" style="enable-background:new 0 0 512 512" xml:space="preserve"><path xmlns="http://www.w3.org/2000/svg" style="fill:#fff" d="M341.333 10.667H96c-11.782 0-21.333 9.551-21.333 21.333v448c0 11.782 9.551 21.333 21.333 21.333h320c11.782 0 21.333-9.551 21.333-21.333V106.667l-96-96z"/><path style="fill:#78b9eb" d="M362.667 106.667h74.667l-96-96v74.667c-.001 11.781 9.551 21.333 21.333 21.333zM334.869 245.44c-12.904-38.609-49.224-64.499-89.931-64.107-50.983-.88-93.052 39.686-94.027 90.667 0 2.133.117 4.267.224 6.4-25.457 4.473-44.131 26.422-44.469 52.267.584 29.983 25.322 53.839 55.307 53.333h171.456c1.888 0 3.659-.107 5.536-.213 38.195-1.397 68.026-33.494 66.629-71.689-1.384-37.82-32.89-67.514-70.725-66.658z"/><path style="fill:#1e81ce" d="M447.861 105.995a10.058 10.058 0 0 0-.544-2.741c-.117-.341-.203-.672-.352-1.003a10.665 10.665 0 0 0-2.133-3.125l-96-96a10.659 10.659 0 0 0-3.125-2.133c-.331-.149-.651-.235-.992-.352a10.754 10.754 0 0 0-2.741-.512c-.214-.012-.417-.129-.641-.129H96C78.327 0 64 14.327 64 32v448c0 17.673 14.327 32 32 32h320c17.673 0 32-14.327 32-32V106.667c0-.235-.117-.438-.139-.672zM411.584 96h-48.917C356.776 96 352 91.224 352 85.333V36.416L411.584 96zM416 490.667H96c-5.891 0-10.667-4.776-10.667-10.667V32c0-5.891 4.776-10.667 10.667-10.667h234.667v64c0 17.673 14.327 32 32 32h64V480c0 5.891-4.776 10.667-10.667 10.667z"/><path style="fill:#1e81ce" d="M342.528 235.232c-16.232-39.481-54.905-65.067-97.589-64.565-56.172-.813-102.686 43.431-104.683 99.573-26.186 8.565-43.992 32.877-44.256 60.427.585 35.874 30.098 64.505 65.973 64h171.456c2.133 0 4.032-.107 6.304-.235 44.01-1.956 78.101-39.218 76.145-83.228-1.786-40.201-33.237-72.776-73.35-75.972zm-4.267 137.909c-1.643.096-3.2.192-4.853.192H161.973c-24.094.507-44.058-18.574-44.64-42.667.361-20.709 15.379-38.243 35.787-41.781a10.966 10.966 0 0 0 8.651-11.328c-.096-1.845-.192-3.701-.192-5.557.997-45.08 38.277-80.857 83.36-80 36.007-.222 68.126 22.597 79.765 56.672a10.668 10.668 0 0 0 9.984 7.467c32.33-.596 59.023 25.129 59.619 57.46.586 31.771-24.277 58.21-56.024 59.575l-.022-.033zM128 64h21.333v21.333H128V64zM170.667 64h42.667v21.333h-42.667V64zM128 106.667h85.333V128H128v-21.333z"/></svg>